Coordinates
version=1
nRows=13
nColumns=36
inDegrees=yes

Units are S.I. units (second, meters, Newtons, ...)
If the header above contains a line with 'inDegrees', this indicates whether rotational values are in degrees (yes) or radians (no).

endheader
time	pelvis_tilt	pelvis_list	pelvis_rotation	pelvis_tx	pelvis_ty	pelvis_tz	hip_flexion_r	hip_adduction_r	hip_rotation_r	knee_angle_r	knee_angle_r_beta	ankle_angle_r	subtalar_angle_r	mtp_angle_r	hip_flexion_l	hip_adduction_l	hip_rotation_l	knee_angle_l	knee_angle_l_beta	ankle_angle_l	subtalar_angle_l	mtp_angle_l	lumbar_extension	lumbar_bending	lumbar_rotation	arm_flex_r	arm_add_r	arm_rot_r	elbow_flex_r	pro_sup_r	arm_flex_l	arm_add_l	arm_rot_l	elbow_flex_l	pro_sup_l
      2.94166670	    -37.17175613	      0.21494590	      4.73223017	      0.05299704	      0.58152223	     -0.08106258	    104.82795871	    -10.97681523	     14.54663766	    110.04132058	      1.92058336	     33.62938751	    -19.65668333	     -7.49999987	    106.24626963	     -3.54164749	      3.66902644	    110.06671420	      1.92102656	     29.26719223	    -17.04118536	     -7.49999987	    -22.55003173	     -1.70296762	     -3.19096042	     67.12768548	    -49.05877271	     30.37360557	     96.28190527	     81.22863217	     81.34636598	    -50.15012323	     49.99649454	     88.23826680	     74.54666929
      2.94583330	    -37.38429942	      0.22609547	      4.96304843	      0.05339929	      0.58432029	     -0.08066532	    104.36872441	    -10.66829407	     14.60959220	    109.58182966	      1.91256373	     32.87001165	    -21.22479004	     -7.49999987	    106.11499632	     -3.49579886	      3.52077724	    109.70812270	      1.91476796	     28.96989012	    -16.78405337	     -7.49999987	    -22.39321059	     -1.86176956	     -3.84287277	     64.43359057	    -49.01871129	     27.36085756	     99.90311466	     80.77651665	     78.81532236	    -52.25466879	     48.05660691	     91.31452340	     74.28629335
      2.95000000	    -37.06442988	      0.19284516	      5.20793466	      0.05830425	      0.59184108	     -0.07679688	    103.39220854	    -10.29106508	     14.31058904	    109.23814455	      1.90656529	     31.96585235	    -23.62202372	     -7.49999987	    104.95135917	     -3.50959675	      3.64890056	    108.91126711	      1.90086020	     28.50772956	    -16.84713439	     -7.49999987	    -22.54281312	     -2.10239971	     -4.13334995	     60.73780959	    -48.98346962	     23.80495593	    102.27408600	     81.60201299	     75.75670171	    -53.11862363	     45.65584704	     93.35246768	     74.90363299
      2.95416670	    -36.95736229	      0.40673407	      5.49098815	      0.05851744	      0.59562551	     -0.07656612	    102.64111446	     -9.99992462	     14.26491026	    108.76153223	      1.89824684	     30.99294811	    -25.74773723	     -7.49999987	    104.13821493	     -3.27051457	      3.52020033	    108.22023931	      1.88879949	     28.12122235	    -17.03588168	     -7.49999987	    -22.57022313	     -2.46863475	     -4.49285849	     58.44212707	    -49.92428305	     23.52311168	    105.05451940	     81.30131326	     73.93687775	    -54.61678335	     45.24024874	     94.91297286	     74.65310265
      2.95833330	    -36.64055272	      0.46076766	      5.72048456	      0.06310769	      0.59958465	     -0.08141746	    101.69447215	    -10.06151865	     14.27252553	    108.40218620	      1.89197507	     29.85038135	    -27.64692376	     -7.49999987	    103.07793734	     -3.03614634	      3.41529809	    107.61554038	      1.87824551	     28.24792214	    -17.21852491	     -7.49999987	    -22.73647652	     -2.53325367	     -4.26989335	     53.78992352	    -51.26371356	     20.74118494	    108.11359427	     82.62581742	     70.12772047	    -54.74949037	     41.89830176	     96.81021919	     75.60279182
      2.96250000	    -36.65898391	      0.67199072	      5.69087490	      0.06312663	      0.60347010	     -0.08172960	    101.05953185	     -9.95447945	     14.53348658	    107.67319342	      1.87925174	     29.78893785	    -27.94724823	     -7.49999987	    102.40660339	     -2.79952964	      3.14008970	    106.98193085	      1.86718693	     28.46672889	    -17.52954620	     -7.49999987	    -22.33052091	     -2.74666302	     -4.10822729	     51.23610073	    -52.46904265	     21.23680047	    109.73382583	     81.87326709	     67.47426296	    -55.41494364	     41.15520014	     97.17181794	     74.97655638
      2.96666670	    -36.57286775	      0.55633018	      5.35092025	      0.06794456	      0.61107925	     -0.08776518	    100.09623669	     -9.93034882	     14.24825237	    106.58867684	      1.86032336	     29.59189842	    -28.49635765	     -7.49999987	    101.55783075	     -2.52406926	      3.14000339	    106.45035170	      1.85790913	     28.48496189	    -18.30059454	     -7.49999987	    -22.21435995	     -2.45938033	     -3.18269105	     47.03227831	    -53.49926189	     18.34505712	    111.80168274	     82.66806627	     61.87264147	    -54.53052921	     35.60649846	     97.58291935	     75.41694904
      2.97083330	    -36.27934822	      0.50981308	      5.14894010	      0.07245706	      0.61860319	     -0.08369568	     98.64570609	     -9.70990835	     13.92649741	    105.48019282	      1.84097666	     28.92031353	    -29.77400269	     -7.49999987	    100.29162990	     -2.32815868	      3.21481110	    105.67357610	      1.84435184	     28.08797226	    -19.28205357	     -7.49999987	    -22.24022898	     -2.53976879	     -2.90415631	     43.99083018	    -53.16078166	     16.78222841	    112.17710905	     82.97063923	     58.33395749	    -54.23248681	     33.16288748	     97.44769894	     75.59125611
      2.97500000	    -35.79155965	      0.40565239	      5.26965989	      0.06870066	      0.62175325	     -0.07943935	     97.43821338	     -9.44449045	     13.68422060	    104.73191837	      1.82791681	     29.17344666	    -30.43162975	     -7.49999987	     99.29672154	     -2.11285458	      3.44979706	    105.03111494	      1.83313877	     28.10774335	    -19.33567927	     -7.49999987	    -22.35300293	     -2.58501224	     -3.14293463	     42.02914797	    -53.13920463	     16.93294699	    112.43651589	     83.03429807	     56.53401977	    -54.66561886	     33.01577372	     96.93498074	     75.60732165
      2.97916670	    -35.50917499	      0.03702044	      5.24178153	      0.06972133	      0.62522259	     -0.08026303	     96.57661620	     -9.03135048	     13.17362762	    104.13278659	      1.81745999	     28.87588109	    -31.40221329	     -7.49999987	     98.70415793	     -1.89494543	      4.05224826	    104.56060204	      1.82492677	     27.54427729	    -19.99970256	     -7.49999987	    -22.73805823	     -2.16875386	     -2.96600752	     37.65363155	    -53.00057558	     12.47686030	    114.16687574	     81.13215108	     51.92154531	    -54.31412853	     27.99085556	     98.10028998	     74.14325610
      2.98333330	    -35.09162132	     -0.26727819	      5.03811904	      0.06682104	      0.62854877	     -0.07629265	     95.77099536	     -8.37422472	     12.64749573	    103.55489617	      1.80737389	     28.70844229	    -31.84512549	     -7.49999987	     98.33802704	     -1.88303056	      4.79138862	    104.34774241	      1.82121167	     26.73095535	    -20.70300110	     -7.49999987	    -23.24001277	     -2.15060563	     -3.01964345	     34.27737496	    -52.78963035	      9.89299880	    115.04132854	     82.35314629	     49.00585220	    -55.58937627	     26.29602960	     99.16667254	     75.02616019
      2.98750000	    -34.80322025	     -0.63649948	      5.21605052	      0.06792139	      0.62915459	     -0.07698137	     95.28209440	     -8.13151663	     12.33806772	    103.40699139	      1.80479247	     28.85116209	    -31.94679835	     -7.49999987	     98.19419661	     -1.70839557	      5.42351927	    104.21414729	      1.81888000	     26.23030033	    -20.76529434	     -7.49999987	    -23.56770413	     -1.94122062	     -3.24018997	     30.53177203	    -52.81124189	      7.34198619	    116.53791590	     81.55594777	     46.04674615	    -56.79228507	     24.67383101	    100.41004701	     74.53943743
      2.99166670	    -34.33279215	     -0.77815521	      4.99018094	      0.06491947	      0.63564286	     -0.08111484	     94.55887423	     -7.77497701	     12.17240172	    102.49998296	      1.78896219	     28.67641686	    -31.70594319	     -7.49999987	     97.67827077	     -1.61103797	      5.63448623	    103.94645470	      1.81420788	     25.79935691	    -21.07098747	     -7.49999987	    -23.87048125	     -1.89176198	     -3.27551336	     28.79130244	    -52.56742471	      7.69654266	    116.70717573	     81.67129294	     44.50202697	    -57.49545374	     25.19497117	    100.33719854	     74.63219601
